<?xml version="1.0" encoding="UTF-8" standalone="no"?>
<!DOCTYPE svg PUBLIC "-//W3C//DTD SVG 1.1//EN" "http://www.w3.org/Graphics/SVG/1.1/DTD/svg11.dtd">
<svg width="100%" height="100%" viewBox="0 0 4500 1134" version="1.1" xmlns="http://www.w3.org/2000/svg" xmlns:xlink="http://www.w3.org/1999/xlink" xml:space="preserve" xmlns:serif="http://www.serif.com/" style="fill-rule:evenodd;clip-rule:evenodd;stroke-linejoin:round;stroke-miterlimit:2;">
    <g id="Página-1" serif:id="Página 1" transform="matrix(4.166667,0,0,4.166667,0,0)">
        <rect x="0" y="0" width="1080" height="272" style="fill:none;"/>
        <g id="Layer-1" serif:id="Layer 1">
            <g transform="matrix(1,0,0,1,320.6597,218.3914)">
                <path d="M0,-70.7C27.396,-70.7 41.144,-60.291 42.911,-40.456L24.941,-40.456C23.272,-51.552 14.729,-55.872 0,-55.872C-17.97,-55.872 -25.531,-49.49 -25.531,-35.448C-25.531,-21.307 -17.872,-14.827 0,-14.827C14.631,-14.827 23.272,-19.246 24.941,-30.44L42.911,-30.44C41.144,-10.507 27.396,0 0,0C-30.244,0 -43.206,-12.568 -43.206,-35.448C-43.206,-58.229 -30.244,-70.7 0,-70.7" style="fill:white;fill-rule:nonzero;"/>
            </g>
            <g transform="matrix(1,0,0,1,460.7891,217.4098)">
                <path d="M0,-68.736L0,0L-17.675,0L-17.675,-26.905L-73.646,-26.905L-73.646,0L-91.321,0L-91.321,-68.736L-73.646,-68.736L-73.646,-41.831L-17.675,-41.831L-17.675,-68.736L0,-68.736Z" style="fill:white;fill-rule:nonzero;"/>
            </g>
            <g transform="matrix(1,0,0,1,525.8975,176.4631)">
                <path d="M0,13.158L-13.943,-14.73L-27.985,13.158L0,13.158ZM6.58,26.316L-34.564,26.316L-41.929,40.947L-61.371,40.947L-25.923,-27.789L-2.062,-27.789L33.484,40.947L13.944,40.947L6.58,26.316Z" style="fill:white;fill-rule:nonzero;"/>
            </g>
            <g transform="matrix(1,0,0,1,633.8203,163.502)">
                <path d="M0,39.08L0,53.908L-70.7,53.908L-70.7,-14.828L-53.025,-14.828L-53.025,39.08L0,39.08Z" style="fill:white;fill-rule:nonzero;"/>
            </g>
            <g transform="matrix(1,0,0,1,710.9072,163.502)">
                <path d="M0,39.08L0,53.908L-70.7,53.908L-70.7,-14.828L-53.025,-14.828L-53.025,39.08L0,39.08Z" style="fill:white;fill-rule:nonzero;"/>
            </g>
            <g transform="matrix(1,0,0,1,734.9678,203.3678)">
                <path d="M0,-40.652L0,-26.709L54.989,-26.709L54.989,-13.943L0,-13.943L0,0L54.989,0L54.989,14.042L-17.675,14.042L-17.675,-54.694L54.989,-54.694L54.989,-40.652L0,-40.652Z" style="fill:white;fill-rule:nonzero;"/>
            </g>
            <g transform="matrix(1,0,0,1,884.4248,217.4098)">
                <path d="M0,-68.736L0,0L-24.057,0L-70.896,-51.552L-70.896,0L-88.571,0L-88.571,-68.736L-64.611,-68.736L-17.675,-17.086L-17.675,-68.736L0,-68.736Z" style="fill:white;fill-rule:nonzero;"/>
            </g>
            <g transform="matrix(1,0,0,1,932.3496,185.4959)">
                <path d="M0,-4.909L43.599,-4.909L43.599,31.914L30.539,31.914L29.753,21.112C23.272,28.183 12.962,32.896 -1.669,32.896C-27.004,32.896 -42.518,20.327 -42.518,-2.454C-42.518,-25.235 -27.004,-37.805 1.276,-37.805C28.771,-37.805 42.519,-27.1 43.599,-10.015L25.629,-10.015C24.647,-15.22 19.934,-22.976 1.276,-22.976C-21.7,-22.976 -24.843,-10.309 -24.843,-2.061C-24.843,6.285 -21.603,19.246 1.276,19.246C18.362,19.246 25.236,11.784 25.629,6.58L0,6.58L0,-4.909Z" style="fill:white;fill-rule:nonzero;"/>
            </g>
            <g transform="matrix(1,0,0,1,1000.0107,203.3678)">
                <path d="M0,-40.652L0,-26.709L54.989,-26.709L54.989,-13.943L0,-13.943L0,0L54.989,0L54.989,14.042L-17.675,14.042L-17.675,-54.694L54.989,-54.694L54.989,-40.652L0,-40.652Z" style="fill:white;fill-rule:nonzero;"/>
            </g>
            <g transform="matrix(1,0,0,1,173.4805,221.3729)">
                <path d="M0,-76.662L41.894,-76.662L41.894,-50.367L-26.295,-50.367L-50.368,-26.295L41.894,-26.295L41.894,-0L-61.804,-0L-61.804,26.48L67.749,26.48C71.878,26.48 75.226,23.133 75.226,19.004L75.226,-103.142L26.48,-103.142L0,-76.662Z" style="fill:white;fill-rule:nonzero;"/>
            </g>
            <g transform="matrix(1,0,0,1,99.4956,50.6266)">
                <path d="M0,76.663L-41.164,76.663L-41.164,50.368L26.295,50.368L50.368,26.295L-41.164,26.295L-41.164,0L62.534,0L62.534,-26.48L-67.019,-26.48C-71.148,-26.48 -74.496,-23.132 -74.496,-19.003L-74.496,103.143L-26.479,103.143L0,76.663Z" style="fill:white;fill-rule:nonzero;"/>
            </g>
            <g transform="matrix(1,0,0,1,25,46.999)">
                <path d="M0,178.002L0,200.854L22.852,200.854L223.706,0L223.706,-22.852L200.854,-22.852L0,178.002Z" style="fill:rgb(35,170,74);fill-rule:nonzero;"/>
            </g>
        </g>
    </g>
</svg>
