<svg width="350" height="70" viewBox="0 0 350 70" fill="none" xmlns="http://www.w3.org/2000/svg">
<path d="M15.552 69.12C10.432 69.12 6.56 67.68 3.936 64.8C1.312 61.856 0 57.664 0 52.224V48.384H9.984V52.992C9.984 57.344 11.808 59.52 15.456 59.52C17.248 59.52 18.592 59.008 19.488 57.984C20.448 56.896 20.928 55.168 20.928 52.8C20.928 49.984 20.288 47.52 19.008 45.408C17.728 43.232 15.36 40.64 11.904 37.632C7.552 33.792 4.512 30.336 2.784 27.264C1.056 24.128 0.192 20.608 0.192 16.704C0.192 11.392 1.536 7.296 4.224 4.416C6.912 1.472 10.816 0 15.936 0C20.992 0 24.8 1.472 27.36 4.416C29.984 7.296 31.296 11.456 31.296 16.896V19.68H21.312V16.224C21.312 13.92 20.864 12.256 19.968 11.232C19.072 10.144 17.76 9.6 16.032 9.6C12.512 9.6 10.752 11.744 10.752 16.032C10.752 18.464 11.392 20.736 12.672 22.848C14.016 24.96 16.416 27.52 19.872 30.528C24.288 34.368 27.328 37.856 28.992 40.992C30.656 44.128 31.488 47.808 31.488 52.032C31.488 57.536 30.112 61.76 27.36 64.704C24.672 67.648 20.736 69.12 15.552 69.12Z" fill="white"/>
<path d="M33.7028 0.959999H46.9507L57.2228 41.184H57.4148V0.959999H66.8228V68.16H55.9748L43.3027 19.104H43.1108V68.16H33.7028V0.959999Z" fill="white"/>
<path d="M86.0955 69.12C80.9115 69.12 76.9435 67.648 74.1915 64.704C71.4395 61.76 70.0635 57.6 70.0635 52.224V16.896C70.0635 11.52 71.4395 7.36 74.1915 4.416C76.9435 1.472 80.9115 0 86.0955 0C91.2795 0 95.2475 1.472 97.9995 4.416C100.751 7.36 102.128 11.52 102.128 16.896V52.224C102.128 57.6 100.751 61.76 97.9995 64.704C95.2475 67.648 91.2795 69.12 86.0955 69.12ZM86.0955 59.52C89.7435 59.52 91.5675 57.312 91.5675 52.896V16.224C91.5675 11.808 89.7435 9.6 86.0955 9.6C82.4475 9.6 80.6235 11.808 80.6235 16.224V52.896C80.6235 57.312 82.4475 59.52 86.0955 59.52Z" fill="white"/>
<path d="M120.693 69.12C115.509 69.12 111.541 67.648 108.789 64.704C106.037 61.76 104.661 57.6 104.661 52.224V16.896C104.661 11.52 106.037 7.36 108.789 4.416C111.541 1.472 115.509 0 120.693 0C125.877 0 129.845 1.472 132.597 4.416C135.349 7.36 136.725 11.52 136.725 16.896V52.224C136.725 57.6 135.349 61.76 132.597 64.704C129.845 67.648 125.877 69.12 120.693 69.12ZM120.693 59.52C124.341 59.52 126.165 57.312 126.165 52.896V16.224C126.165 11.808 124.341 9.6 120.693 9.6C117.045 9.6 115.221 11.808 115.221 16.224V52.896C115.221 57.312 117.045 59.52 120.693 59.52Z" fill="white"/>
<path d="M140.027 0.959999H150.587V29.28L164.027 0.959999H174.587L162.01 25.632L174.779 68.16H163.738L154.811 38.208L150.587 46.752V68.16H140.027V0.959999Z" fill="white"/>
<path d="M175.937 0.959999H204.737V10.56H186.497V28.32H200.993V37.92H186.497V58.56H204.737V68.16H175.937V0.959999Z" fill="white"/>
<path d="M206.972 0.959999H222.62C228.06 0.959999 232.028 2.24 234.524 4.8C237.02 7.296 238.268 11.168 238.268 16.416V20.544C238.268 27.52 235.964 31.936 231.356 33.792V33.984C233.916 34.752 235.708 36.32 236.732 38.688C237.82 41.056 238.364 44.224 238.364 48.192V60C238.364 61.92 238.428 63.488 238.556 64.704C238.684 65.856 239.004 67.008 239.516 68.16H228.764C228.38 67.072 228.124 66.048 227.996 65.088C227.868 64.128 227.804 62.4 227.804 59.904V47.616C227.804 44.544 227.292 42.4 226.268 41.184C225.308 39.968 223.612 39.36 221.18 39.36H217.532V68.16H206.972V0.959999ZM221.372 29.76C223.484 29.76 225.052 29.216 226.076 28.128C227.163 27.04 227.708 25.216 227.708 22.656V17.472C227.708 15.04 227.26 13.28 226.364 12.192C225.532 11.104 224.188 10.56 222.332 10.56H217.532V29.76H221.372Z" fill="white"/>
<path d="M261.545 0.959999H275.849L286.793 68.16H276.233L274.313 54.816V55.008H262.313L260.393 68.16H250.601L261.545 0.959999ZM273.065 45.888L268.361 12.672H268.169L263.561 45.888H273.065Z" fill="#F00F55"/>
<path d="M302.769 69.12C297.713 69.12 293.841 67.68 291.153 64.8C288.529 61.92 287.217 57.856 287.217 52.608V16.512C287.217 11.264 288.529 7.2 291.153 4.32C293.841 1.44 297.713 0 302.769 0C307.825 0 311.665 1.44 314.289 4.32C316.977 7.2 318.321 11.264 318.321 16.512V23.616H308.337V15.84C308.337 11.68 306.577 9.6 303.057 9.6C299.537 9.6 297.777 11.68 297.777 15.84V53.376C297.777 57.472 299.537 59.52 303.057 59.52C306.577 59.52 308.337 57.472 308.337 53.376V43.104H318.321V52.608C318.321 57.856 316.977 61.92 314.289 64.8C311.665 67.68 307.825 69.12 302.769 69.12Z" fill="#F00F55"/>
<path d="M320.799 0.959999H349.599V10.56H331.359V28.32H345.855V37.92H331.359V58.56H349.599V68.16H320.799V0.959999Z" fill="#F00F55"/>
</svg>
